<svg width="17" height="16" viewBox="0 0 17 16" fill="none" xmlns="http://www.w3.org/2000/svg">
<g clip-path="url(#clip0_1_162)">
<path d="M1.46562 4.00639H15.0656M5.39842 3.99999V3.63359C5.39842 2.88207 5.69696 2.16133 6.22836 1.62993C6.75977 1.09853 7.4805 0.799988 8.23202 0.799988C8.98354 0.799988 9.70428 1.09853 10.2357 1.62993C10.7671 2.16133 11.0656 2.88207 11.0656 3.63359V3.99999M6.64802 7.19999V12M9.88962 7.19999V12M11.8656 15.2H4.66562C4.24128 15.2 3.83431 15.0314 3.53425 14.7314C3.23419 14.4313 3.06562 14.0243 3.06562 13.6V3.99999H13.4656V13.6C13.4656 14.0243 13.2971 14.4313 12.997 14.7314C12.6969 15.0314 12.29 15.2 11.8656 15.2Z" stroke="#1A1A1A" stroke-width="1.28" stroke-linecap="round" stroke-linejoin="round"/>
</g>
<defs>
<clipPath id="clip0_1_162">
<rect width="16" height="16" fill="white" transform="translate(0.265625)"/>
</clipPath>
</defs>
</svg>
